<svg width="143" height="32" fill="none" xmlns="http://www.w3.org/2000/svg"><path d="M55.584 13.354a9.63 9.63 0 0 1 2.288-.792 12.193 12.193 0 0 1 2.64-.264c.939 0 1.716.073 2.332.22.616.147 1.107.36 1.474.638.367.279.623.609.77.99.147.381.22.814.22 1.298 0 .279-.022.58-.066.902a7.88 7.88 0 0 1-.11.814L64.098 22h-3.542l-.396-1.408h-.132c-.47.513-1.02.91-1.65 1.188a4.659 4.659 0 0 1-1.848.396 3.53 3.53 0 0 1-1.034-.154 2.768 2.768 0 0 1-.902-.462 2.5 2.5 0 0 1-.638-.814c-.161-.337-.242-.74-.242-1.21 0-.763.205-1.364.616-1.804.425-.455.975-.792 1.65-1.012a9.1 9.1 0 0 1 2.31-.44c.865-.059 1.73-.088 2.596-.088.03-.147.066-.352.11-.616.044-.279.066-.52.066-.726 0-.264-.073-.506-.22-.726-.132-.235-.418-.352-.858-.352-.513 0-.895.154-1.144.462a2.323 2.323 0 0 0-.462 1.078h-3.212l.418-1.958Zm5.06 3.872h-.396c-.425 0-.792.059-1.1.176a2.056 2.056 0 0 0-.726.418 1.758 1.758 0 0 0-.396.594c-.088.22-.132.44-.132.66 0 .352.088.616.264.792.19.176.41.264.66.264.308 0 .609-.11.902-.33.308-.22.499-.513.572-.88l.352-1.694ZM70.407 22h-4.488l3.124-14.784h4.51L70.407 22Zm6.973-4.422c-.059.323-.103.63-.132.924-.015.293-.022.557-.022.792 0 .132.007.279.022.44.015.161.044.315.088.462.059.132.132.25.22.352a.621.621 0 0 0 .418.132.935.935 0 0 0 .44-.132 1.96 1.96 0 0 0 .506-.374c.176-.161.337-.36.484-.594.161-.235.286-.499.374-.792h3.608l-.572 2.354c-.293.19-.63.352-1.012.484a9.712 9.712 0 0 1-1.21.33c-.425.073-.858.125-1.298.154-.44.044-.858.066-1.254.066a9.986 9.986 0 0 1-2.046-.198 4.507 4.507 0 0 1-1.65-.682 3.505 3.505 0 0 1-1.122-1.276c-.264-.543-.396-1.21-.396-2.002 0-.719.11-1.423.33-2.112A4.694 4.694 0 0 1 74.3 14.08c.543-.543 1.261-.975 2.156-1.298.91-.323 2.039-.484 3.388-.484 1.467 0 2.567.227 3.3.682.748.455 1.122 1.166 1.122 2.134 0 .396-.059.829-.176 1.298a3.408 3.408 0 0 1-.528 1.166H77.38Zm2.926-2.618c0-.455-.073-.763-.22-.924a.69.69 0 0 0-.528-.242c-.235 0-.455.08-.66.242-.19.147-.367.352-.528.616-.161.25-.308.543-.44.88a7.11 7.11 0 0 0-.33 1.034h2.508c.03-.176.059-.36.088-.55a5.2 5.2 0 0 0 .066-.528c.03-.19.044-.367.044-.528Zm10.205-1.012a7.236 7.236 0 0 1 1.034-.814c.338-.205.74-.396 1.21-.572.47-.176.998-.264 1.584-.264.704 0 1.225.161 1.562.484.352.323.55.719.594 1.188h.132a7.757 7.757 0 0 1 1.1-.836 7.496 7.496 0 0 1 1.188-.572 3.987 3.987 0 0 1 1.452-.264c.763 0 1.379.213 1.848.638.484.41.726.946.726 1.606 0 .337-.058.785-.176 1.342-.117.557-.249 1.166-.396 1.826l-.924 4.29h-4.334l1.188-5.742c.044-.22.088-.433.132-.638.044-.205.066-.374.066-.506a.733.733 0 0 0-.176-.506c-.117-.147-.286-.22-.506-.22-.278 0-.542.103-.792.308-.234.19-.418.352-.55.484L95.043 22H90.93l1.21-5.742c.03-.19.066-.381.11-.572.044-.205.066-.389.066-.55 0-.22-.058-.396-.176-.528-.102-.147-.264-.22-.484-.22-.264 0-.52.095-.77.286-.234.19-.418.352-.55.484L88.883 22h-4.488l2.002-9.46h3.586l.396 1.408h.132Zm14.637-.594a9.635 9.635 0 0 1 2.288-.792 12.193 12.193 0 0 1 2.64-.264c.939 0 1.716.073 2.332.22.616.147 1.108.36 1.474.638.367.279.624.609.77.99.147.381.22.814.22 1.298 0 .279-.022.58-.066.902a7.799 7.799 0 0 1-.11.814L113.662 22h-3.542l-.396-1.408h-.132a4.888 4.888 0 0 1-1.65 1.188 4.659 4.659 0 0 1-1.848.396c-.352 0-.696-.051-1.034-.154a2.77 2.77 0 0 1-.902-.462 2.509 2.509 0 0 1-.638-.814c-.161-.337-.242-.74-.242-1.21 0-.763.206-1.364.616-1.804.426-.455.976-.792 1.65-1.012a9.111 9.111 0 0 1 2.31-.44 38.368 38.368 0 0 1 2.596-.088c.03-.147.066-.352.11-.616.044-.279.066-.52.066-.726 0-.264-.073-.506-.22-.726-.132-.235-.418-.352-.858-.352-.513 0-.894.154-1.144.462a2.338 2.338 0 0 0-.462 1.078h-3.212l.418-1.958Zm5.06 3.872h-.396c-.425 0-.792.059-1.1.176a2.062 2.062 0 0 0-.726.418 1.758 1.758 0 0 0-.396.594c-.088.22-.132.44-.132.66 0 .352.088.616.264.792a.945.945 0 0 0 .66.264c.308 0 .609-.11.902-.33.308-.22.499-.513.572-.88l.352-1.694Zm11.391-3.278a7.253 7.253 0 0 1 1.034-.814 7.462 7.462 0 0 1 1.188-.572 4.177 4.177 0 0 1 1.518-.264c.763 0 1.393.198 1.892.594.499.381.748.91.748 1.584 0 .19-.022.425-.066.704a25.488 25.488 0 0 1-.352 1.738c-.059.293-.11.557-.154.792l-.924 4.29h-4.466l1.21-5.742a7.68 7.68 0 0 1 .11-.572c.044-.205.066-.389.066-.55 0-.22-.059-.396-.176-.528-.103-.147-.264-.22-.484-.22-.264 0-.521.095-.77.286-.235.19-.418.352-.55.484L119.971 22h-4.488l2.002-9.46h3.586l.396 1.408h.132Z" fill="url(#a)"/><path d="M19.192 25.872c-.619.128-1.227.235-1.824.32-.597.107-1.227.16-1.888.16-1.28 0-2.443-.203-3.488-.608a7.116 7.116 0 0 1-2.688-1.728c-.725-.747-1.29-1.675-1.696-2.784C7.203 20.122 7 18.853 7 17.424c0-1.856.33-3.488.992-4.896.661-1.43 1.536-2.624 2.624-3.584a11.15 11.15 0 0 1 3.808-2.208c1.45-.49 2.965-.736 4.544-.736 1.493 0 2.848.224 4.064.672 1.216.427 2.25 1.035 3.104 1.824a8.035 8.035 0 0 1 2.016 2.816c.47 1.067.704 2.25.704 3.552 0 .81-.107 1.621-.32 2.432a6.608 6.608 0 0 1-.992 2.24c-.448.661-1.056 1.205-1.824 1.632-.768.405-1.728.608-2.88.608-1.045 0-1.856-.203-2.432-.608-.576-.427-.885-1.152-.928-2.176h-.192c-.384.81-.917 1.44-1.6 1.888-.683.427-1.43.64-2.24.64-.896 0-1.643-.288-2.24-.864-.576-.576-.864-1.515-.864-2.816 0-.32.032-.821.096-1.504a7.38 7.38 0 0 1 .576-2.048 5.227 5.227 0 0 1 1.376-1.824c.619-.512 1.461-.768 2.528-.768.512 0 .992.107 1.44.32.47.192.843.63 1.12 1.312h.128l.8-1.408h3.072l-.928 4.352c-.085.405-.16.779-.224 1.12-.064.32-.096.619-.096.896 0 .832.363 1.248 1.088 1.248.256 0 .544-.053.864-.16.32-.128.619-.352.896-.672.299-.32.544-.747.736-1.28.192-.555.288-1.259.288-2.112 0-2.07-.63-3.712-1.888-4.928-1.259-1.237-3.04-1.856-5.344-1.856-1.237 0-2.4.192-3.488.576a8.498 8.498 0 0 0-2.88 1.696c-.81.725-1.45 1.643-1.92 2.752-.47 1.088-.704 2.336-.704 3.744 0 1.13.15 2.112.448 2.944.299.81.704 1.493 1.216 2.048a4.8 4.8 0 0 0 1.888 1.216 6.486 6.486 0 0 0 2.336.416c.597 0 1.173-.064 1.728-.192a16.934 16.934 0 0 0 1.728-.416l-.032 2.56Zm-1.12-12.128c-.32 0-.608.16-.864.48a4.256 4.256 0 0 0-.608 1.12c-.15.427-.267.885-.352 1.376-.064.47-.096.885-.096 1.248 0 .853.245 1.28.736 1.28.299 0 .576-.107.832-.32.256-.213.437-.405.544-.576l.864-3.84A2.572 2.572 0 0 0 18.68 14c-.15-.17-.352-.256-.608-.256Z" fill="url(#b)"/><defs><linearGradient id="a" x1="91.5" y1="0" x2="91.5" y2="23" gradientUnits="userSpaceOnUse"><stop stop-color="#6366F1"/><stop offset="1" stop-color="#007CA0"/></linearGradient><linearGradient id="b" x1="17.928" y1="6" x2="17.928" y2="26.352" gradientUnits="userSpaceOnUse"><stop stop-color="#6366F1"/><stop offset="1" stop-color="#007CA0"/></linearGradient></defs></svg>