<svg width="35" height="32" fill="none" xmlns="http://www.w3.org/2000/svg"><path d="M19.192 25.872c-.619.128-1.227.235-1.824.32-.597.107-1.227.16-1.888.16-1.28 0-2.443-.203-3.488-.608a7.116 7.116 0 0 1-2.688-1.728c-.725-.747-1.29-1.675-1.696-2.784C7.203 20.122 7 18.853 7 17.424c0-1.856.33-3.488.992-4.896.661-1.43 1.536-2.624 2.624-3.584a11.15 11.15 0 0 1 3.808-2.208c1.45-.49 2.965-.736 4.544-.736 1.493 0 2.848.224 4.064.672 1.216.427 2.25 1.035 3.104 1.824a8.035 8.035 0 0 1 2.016 2.816c.47 1.067.704 2.25.704 3.552 0 .81-.107 1.621-.32 2.432a6.608 6.608 0 0 1-.992 2.24c-.448.661-1.056 1.205-1.824 1.632-.768.405-1.728.608-2.88.608-1.045 0-1.856-.203-2.432-.608-.576-.427-.885-1.152-.928-2.176h-.192c-.384.81-.917 1.44-1.6 1.888-.683.427-1.43.64-2.24.64-.896 0-1.643-.288-2.24-.864-.576-.576-.864-1.515-.864-2.816 0-.32.032-.821.096-1.504a7.38 7.38 0 0 1 .576-2.048 5.227 5.227 0 0 1 1.376-1.824c.619-.512 1.461-.768 2.528-.768.512 0 .992.107 1.44.32.47.192.843.63 1.12 1.312h.128l.8-1.408h3.072l-.928 4.352c-.085.405-.16.779-.224 1.12-.064.32-.096.619-.096.896 0 .832.363 1.248 1.088 1.248.256 0 .544-.053.864-.16.32-.128.619-.352.896-.672.299-.32.544-.747.736-1.28.192-.555.288-1.259.288-2.112 0-2.07-.63-3.712-1.888-4.928-1.259-1.237-3.04-1.856-5.344-1.856-1.237 0-2.4.192-3.488.576a8.498 8.498 0 0 0-2.88 1.696c-.81.725-1.45 1.643-1.92 2.752-.47 1.088-.704 2.336-.704 3.744 0 1.13.15 2.112.448 2.944.299.81.704 1.493 1.216 2.048a4.8 4.8 0 0 0 1.888 1.216 6.486 6.486 0 0 0 2.336.416c.597 0 1.173-.064 1.728-.192a16.934 16.934 0 0 0 1.728-.416l-.032 2.56Zm-1.12-12.128c-.32 0-.608.16-.864.48a4.256 4.256 0 0 0-.608 1.12c-.15.427-.267.885-.352 1.376-.064.47-.096.885-.096 1.248 0 .853.245 1.28.736 1.28.299 0 .576-.107.832-.32.256-.213.437-.405.544-.576l.864-3.84A2.572 2.572 0 0 0 18.68 14c-.15-.17-.352-.256-.608-.256Z" fill="url(#a)"/><defs><linearGradient id="a" x1="17.928" y1="6" x2="17.928" y2="26.352" gradientUnits="userSpaceOnUse"><stop stop-color="#007CA0"/><stop offset="1" stop-color="#6366F1"/></linearGradient></defs></svg>